<?xml version="1.0" standalone="no"?>
<!DOCTYPE svg PUBLIC "-//W3C//DTD SVG 20010904//EN"
 "http://www.w3.org/TR/2001/REC-SVG-20010904/DTD/svg10.dtd">
<svg version="1.0" xmlns="http://www.w3.org/2000/svg"
 width="1296.000000pt" height="1296.000000pt" viewBox="0 0 1296.000000 1296.000000"
 preserveAspectRatio="xMidYMid meet">
<metadata>
Created by potrace 1.11, written by Peter Selinger 2001-2013
</metadata>
<g transform="translate(0.000000,1296.000000) scale(0.100000,-0.100000)"
fill="#000000" stroke="none">
<path d="M6118 12765 c-2 -2 -46 -7 -98 -10 -52 -3 -117 -8 -145 -11 -27 -3
-57 -6 -65 -6 -8 0 -43 -4 -77 -9 -33 -5 -87 -11 -119 -14 -32 -3 -67 -8 -79
-12 -11 -3 -33 -7 -50 -8 -16 -1 -30 -3 -30 -4 0 -2 -9 -4 -20 -6 -111 -16
-150 -22 -150 -25 0 -1 -14 -3 -32 -5 -17 -2 -40 -8 -51 -14 -11 -6 -22 -8
-25 -5 -3 3 -25 0 -48 -6 -24 -7 -53 -14 -64 -15 -29 -5 -63 -13 -88 -21 -12
-5 -26 -8 -32 -9 -34 -4 -86 -19 -91 -26 -3 -5 -9 -7 -12 -5 -12 7 -225 -54
-230 -66 -2 -4 -7 -6 -12 -3 -11 7 -334 -104 -338 -116 -2 -5 -7 -7 -11 -4 -5
2 -46 -11 -92 -30 -46 -19 -90 -35 -96 -35 -7 0 -13 -5 -13 -12 0 -6 -3 -9 -6
-6 -6 6 -48 -11 -200 -82 -49 -23 -89 -41 -89 -40 0 2 -223 -112 -315 -161
-25 -13 -47 -27 -50 -30 -3 -4 -15 -9 -27 -13 -13 -4 -23 -12 -23 -17 0 -6 -3
-8 -8 -5 -4 2 -26 -9 -50 -25 -23 -16 -46 -29 -50 -29 -5 0 -18 -9 -30 -20
-12 -12 -22 -18 -22 -15 0 4 -13 -3 -29 -14 -16 -12 -34 -21 -40 -21 -6 0 -11
-4 -11 -8 0 -5 -19 -19 -42 -32 -45 -25 -99 -61 -108 -71 -3 -3 -16 -12 -30
-19 -29 -16 -99 -69 -118 -90 -12 -13 -13 -13 -7 0 4 8 -5 2 -19 -13 -14 -15
-26 -26 -26 -22 0 15 -319 -237 -320 -252 0 -7 -4 -12 -9 -10 -10 2 -74 -48
-142 -115 -27 -26 -49 -45 -49 -43 0 2 -13 -8 -29 -23 -15 -15 -26 -31 -23
-36 3 -5 1 -6 -5 -3 -11 7 -328 -306 -349 -344 -7 -13 -13 -20 -14 -16 0 5
-12 -6 -27 -24 -16 -18 -27 -38 -25 -44 2 -5 1 -7 -3 -3 -9 8 -35 -14 -28 -24
2 -5 -1 -8 -6 -8 -6 0 -24 -19 -41 -42 -16 -22 -30 -38 -30 -34 0 8 -79 -88
-83 -101 -1 -4 -15 -20 -31 -35 -16 -16 -26 -28 -23 -28 3 0 -9 -17 -28 -37
-19 -20 -32 -41 -29 -45 3 -4 1 -8 -3 -8 -12 0 -89 -99 -86 -111 2 -5 -1 -9
-6 -9 -9 0 -89 -110 -89 -124 0 -5 -4 -12 -9 -15 -22 -16 -63 -74 -57 -82 3
-5 1 -9 -4 -9 -11 0 -108 -151 -105 -162 2 -5 -2 -8 -7 -8 -6 0 -10 -6 -10
-14 0 -8 -4 -16 -8 -18 -11 -4 -107 -171 -104 -180 1 -5 -3 -8 -9 -8 -5 0 -7
-4 -4 -10 3 -5 2 -10 -3 -10 -13 0 -244 -459 -236 -471 3 -5 1 -9 -5 -9 -8 0
-18 -20 -26 -50 -1 -3 -12 -27 -24 -55 -46 -101 -140 -348 -136 -356 3 -4 1
-9 -3 -11 -7 -3 -106 -292 -117 -343 -2 -11 -11 -41 -19 -67 -8 -27 -12 -48
-9 -48 3 0 0 -7 -7 -15 -7 -8 -10 -22 -6 -30 3 -8 2 -15 -3 -15 -7 0 -21 -49
-36 -128 -2 -13 -6 -31 -9 -40 -3 -9 -7 -28 -10 -42 -3 -14 -8 -36 -11 -50 -4
-14 -8 -34 -10 -45 -2 -11 -11 -58 -20 -105 -10 -47 -18 -100 -19 -117 -1 -18
-3 -33 -6 -33 -3 0 -6 -8 -6 -17 -1 -10 -4 -38 -8 -63 -16 -105 -25 -169 -31
-224 -3 -33 -8 -73 -10 -90 -17 -115 -28 -387 -27 -666 1 -294 9 -488 27 -620
3 -19 8 -60 11 -90 3 -30 7 -64 9 -75 1 -11 6 -45 9 -75 4 -30 9 -66 11 -80 3
-14 7 -41 10 -60 4 -19 13 -71 21 -115 23 -128 25 -139 26 -152 1 -7 5 -13 10
-13 5 0 7 -4 3 -9 -3 -5 4 -49 16 -98 11 -48 22 -96 24 -106 2 -10 7 -27 10
-37 3 -10 8 -28 10 -39 3 -12 7 -29 10 -38 2 -10 12 -47 21 -83 10 -36 20 -67
23 -70 3 -3 6 -9 7 -15 1 -19 20 -88 40 -140 4 -11 8 -25 9 -30 8 -36 80 -231
86 -233 4 -2 6 -9 3 -16 -3 -8 1 -20 8 -27 7 -8 15 -23 16 -34 2 -11 11 -36
19 -55 9 -19 17 -42 19 -50 2 -8 8 -16 14 -18 5 -2 7 -8 4 -13 -3 -6 -1 -16 6
-23 6 -8 13 -24 15 -37 3 -12 10 -26 17 -31 7 -4 9 -8 4 -8 -4 0 -1 -11 8 -25
9 -14 14 -25 11 -25 -2 0 4 -17 14 -37 11 -21 38 -78 62 -128 24 -49 48 -93
53 -97 6 -4 8 -8 4 -8 -10 0 91 -193 106 -202 6 -4 8 -8 4 -8 -4 0 6 -22 22
-49 17 -26 30 -51 30 -55 0 -4 13 -27 30 -51 16 -24 30 -48 30 -52 0 -5 8 -18
18 -29 9 -10 23 -30 30 -44 37 -71 151 -240 163 -240 6 0 8 -4 5 -9 -3 -5 7
-25 22 -44 15 -20 47 -65 72 -100 24 -36 48 -63 53 -60 4 2 6 0 5 -5 -4 -13
71 -112 85 -112 6 0 8 -3 4 -6 -8 -8 117 -164 210 -261 17 -18 29 -33 27 -33
-2 0 9 -13 24 -28 15 -15 51 -55 81 -87 30 -33 50 -54 46 -46 -6 10 -4 12 4 7
7 -5 10 -11 7 -14 -9 -8 15 -33 25 -26 5 3 9 -1 9 -9 0 -28 430 -426 452 -419
5 1 7 -1 5 -5 -3 -5 1 -14 9 -21 8 -7 14 -10 14 -7 0 3 10 -5 22 -17 13 -13
46 -42 73 -63 28 -22 52 -42 55 -45 3 -3 61 -47 130 -98 69 -50 131 -96 138
-102 6 -6 12 -8 12 -3 0 4 7 -2 15 -13 8 -10 15 -15 15 -10 0 4 8 -1 18 -12 9
-12 24 -22 32 -24 8 -2 26 -13 40 -25 13 -13 28 -23 32 -23 4 0 17 -8 28 -18
11 -9 23 -15 27 -14 3 2 9 0 12 -5 12 -19 221 -147 221 -136 0 4 7 -2 15 -13
8 -10 15 -14 15 -9 0 6 3 6 8 -1 9 -13 142 -87 142 -79 0 3 10 -3 22 -14 11
-11 25 -18 30 -15 4 3 8 1 8 -5 0 -9 40 -27 49 -22 2 2 7 -2 10 -7 9 -13 111
-64 111 -55 0 5 4 3 8 -3 10 -15 72 -47 72 -37 0 5 4 3 8 -2 6 -9 106 -59 121
-61 3 0 29 -11 56 -24 28 -12 56 -23 63 -23 6 0 12 -5 12 -10 0 -5 7 -7 15 -3
8 3 15 2 15 -3 0 -7 106 -53 130 -56 3 -1 22 -9 43 -18 39 -17 299 -106 326
-112 9 -2 36 -11 60 -19 24 -9 47 -13 52 -10 5 3 9 1 9 -4 0 -5 7 -9 15 -10 8
-1 22 -3 30 -4 8 -1 15 -4 15 -8 0 -4 6 -7 13 -7 6 0 57 -12 111 -26 55 -15
103 -24 107 -22 4 3 9 1 11 -4 1 -6 21 -12 43 -15 22 -2 40 -5 40 -6 0 -2 17
-6 55 -14 14 -3 45 -10 70 -15 50 -11 117 -24 140 -27 8 -1 30 -5 48 -8 57
-11 96 -17 132 -22 34 -4 55 -7 135 -18 249 -36 475 -49 825 -49 248 0 388 4
520 18 25 2 79 7 120 10 41 3 86 8 100 10 14 3 50 8 80 11 30 3 62 7 70 10 8
3 38 8 65 10 28 3 61 7 75 10 14 3 41 7 60 10 19 2 51 9 70 14 19 5 52 11 72
14 47 7 103 20 238 53 58 14 111 26 118 26 6 0 12 4 12 9 0 5 4 7 8 4 4 -2 55
9 112 25 58 17 125 36 150 43 91 26 400 138 477 172 17 8 36 14 42 14 6 0 11
5 11 11 0 5 4 8 9 5 5 -3 21 1 37 8 16 8 52 24 79 36 28 12 77 35 111 51 33
16 66 29 72 29 7 0 12 5 12 10 0 6 3 10 8 9 15 -2 52 14 52 22 0 5 3 8 8 7 10
-2 66 25 74 37 4 5 8 6 8 1 0 -5 9 -1 20 9 11 10 20 15 20 12 0 -4 17 3 38 15
20 12 54 30 75 40 20 10 37 24 37 30 0 6 3 9 6 5 3 -3 27 6 52 20 26 15 56 31
67 37 11 6 25 18 32 26 7 8 13 11 13 7 0 -9 60 30 71 46 3 5 8 8 10 7 8 -4 59
24 59 32 0 4 7 8 15 8 8 0 15 5 15 10 0 6 5 10 11 10 14 0 229 147 247 169 11
13 12 13 6 1 -5 -8 6 -4 23 10 17 14 43 34 58 45 16 11 44 32 63 48 19 15 39
27 45 27 6 0 7 3 4 6 -4 4 13 19 36 34 23 16 55 39 70 53 16 14 47 41 70 59
82 67 120 99 160 137 23 22 52 48 64 59 13 10 19 22 15 26 -4 4 -2 6 5 4 13
-3 203 177 203 193 0 5 3 8 8 7 11 -4 147 143 144 156 -2 6 -1 8 3 4 9 -9 94
82 95 100 0 7 5 10 10 7 6 -3 10 -2 10 3 0 5 16 24 35 43 19 19 35 38 35 42 0
4 14 21 30 37 17 16 30 34 30 40 0 5 4 10 8 10 5 0 21 18 38 40 16 22 39 53
52 68 12 15 26 32 30 37 4 6 20 26 35 46 15 20 24 39 19 44 -4 5 -2 6 3 2 6
-3 22 11 35 31 14 20 35 48 48 62 12 14 22 30 22 37 0 7 5 13 12 13 6 0 9 3 6
6 -4 3 2 14 13 25 11 11 17 25 13 31 -4 6 -3 8 3 5 10 -6 80 101 75 116 -1 5
1 6 6 3 5 -3 15 7 23 22 7 15 20 35 28 45 8 9 11 17 8 17 -4 0 3 12 16 26 12
14 22 29 22 32 1 4 12 25 26 47 56 88 70 115 63 115 -4 0 1 7 12 15 10 8 15
15 9 15 -6 0 -5 3 1 8 10 6 57 88 59 102 0 3 8 16 17 30 9 14 18 32 20 40 2 8
6 17 9 20 12 10 69 130 62 130 -5 0 -3 4 2 8 17 12 55 89 48 96 -3 3 -1 6 5 6
7 0 11 3 10 8 0 4 9 30 22 57 13 28 23 56 23 63 0 6 4 12 8 12 5 0 81 180 84
200 0 3 6 15 13 26 6 12 8 24 5 28 -3 3 -1 6 5 6 7 0 11 3 10 7 -2 5 14 53 34
108 40 111 106 310 112 341 2 10 9 33 16 49 6 17 11 31 10 33 0 1 4 19 9 39 6
20 8 40 5 45 -3 4 -1 8 3 8 9 0 49 154 57 215 2 17 9 43 15 58 6 15 10 31 10
35 -1 4 -1 9 1 12 1 3 3 16 6 30 2 14 11 59 19 100 21 112 51 301 61 400 2 19
6 51 9 70 40 327 48 799 20 1180 -7 101 -16 197 -21 235 -6 42 -9 67 -19 150
-6 51 -12 90 -15 90 -1 0 -7 53 -12 103 -1 12 -6 22 -11 22 -4 0 -6 4 -3 9 3
5 1 33 -5 62 -6 30 -13 68 -16 84 -2 17 -11 57 -19 90 -8 33 -17 72 -19 86 -3
20 -45 187 -79 314 -3 13 -29 98 -31 105 -1 3 -6 20 -10 38 -4 17 -12 32 -17
32 -5 0 -7 4 -4 9 6 9 -103 335 -122 366 -4 6 -7 17 -9 25 -1 8 -7 16 -13 18
-5 2 -8 7 -5 12 5 8 -5 34 -47 130 -39 89 -51 116 -84 186 -19 39 -34 76 -34
83 0 6 -5 11 -10 11 -6 0 -9 3 -8 8 2 10 -54 125 -65 133 -5 3 -9 10 -10 15
-2 21 -22 64 -29 64 -4 0 -8 6 -8 14 0 8 -6 21 -13 28 -7 7 -14 15 -15 18 -4
20 -21 54 -54 108 -21 34 -38 67 -38 72 0 5 -8 14 -17 19 -10 6 -15 11 -10 11
8 0 -42 81 -58 92 -5 4 -7 8 -3 8 4 0 -15 34 -42 75 -28 41 -50 77 -50 80 0 2
-7 13 -15 22 -8 10 -49 68 -91 128 -42 61 -80 112 -85 113 -5 2 -9 8 -9 13 0
10 -160 220 -197 258 -12 13 -33 37 -45 53 -13 16 -35 43 -50 60 -16 16 -28
34 -28 39 0 5 -7 9 -15 9 -8 0 -15 6 -15 14 0 7 -94 110 -210 227 -115 118
-210 211 -210 208 0 -3 -24 17 -53 45 -128 123 -409 354 -517 426 -13 8 -35
24 -49 36 -52 41 -330 224 -340 224 -6 0 -11 5 -11 11 0 5 -4 8 -9 5 -5 -4
-11 -3 -13 2 -4 11 -81 57 -90 54 -5 -1 -8 3 -8 8 0 6 -10 15 -22 20 -13 6
-41 21 -63 33 -181 103 -345 188 -345 179 0 -4 -4 -1 -9 6 -4 7 -14 14 -22 16
-8 1 -47 19 -87 39 -40 19 -74 35 -75 35 -1 -1 -21 9 -45 21 -23 12 -47 19
-52 16 -6 -3 -10 -3 -10 2 0 7 -84 47 -100 48 -3 0 -11 4 -17 8 -12 7 -136 55
-158 61 -5 1 -26 9 -45 18 -36 15 -87 31 -105 33 -5 0 -15 4 -21 7 -37 24
-473 152 -483 143 -2 -3 -9 -1 -15 4 -10 8 -124 36 -186 47 -14 2 -56 10 -93
19 -82 18 -125 26 -237 45 -92 15 -172 26 -255 36 -94 10 -143 15 -195 20 -30
3 -82 8 -115 11 -69 6 -811 14 -817 8z m627 -159 c265 -14 387 -25 578 -52 23
-4 53 -7 67 -9 14 -1 39 -5 55 -8 17 -4 47 -9 68 -12 21 -3 71 -12 110 -20 40
-8 83 -16 97 -19 14 -2 55 -11 91 -20 64 -15 82 -18 141 -31 15 -3 39 -10 53
-15 14 -5 25 -7 25 -5 0 2 12 0 28 -6 15 -6 36 -13 47 -15 33 -6 345 -104 382
-119 20 -8 39 -12 44 -9 5 3 9 0 9 -5 0 -6 8 -11 18 -11 10 0 22 -4 28 -10 5
-5 18 -11 29 -13 11 -2 30 -8 42 -15 12 -7 26 -11 30 -10 4 1 17 -3 28 -9 11
-6 29 -13 40 -14 11 -2 22 -6 25 -9 9 -10 235 -105 243 -102 4 1 7 -1 7 -6 0
-4 15 -13 33 -20 17 -8 91 -43 162 -78 72 -36 134 -64 138 -64 5 1 14 -5 20
-14 7 -8 19 -16 27 -18 8 -2 21 -9 28 -16 8 -7 18 -10 23 -7 5 4 9 1 9 -4 0
-6 7 -11 15 -11 8 0 15 -4 15 -10 0 -5 5 -10 11 -10 6 0 24 -9 40 -21 16 -11
29 -17 29 -12 0 4 4 3 8 -3 13 -19 79 -54 87 -46 5 4 5 2 2 -4 -3 -6 6 -17 21
-25 15 -7 49 -28 76 -47 26 -18 45 -28 40 -20 -4 7 5 1 21 -14 15 -16 34 -28
41 -28 8 0 14 -4 14 -8 0 -5 12 -15 28 -23 26 -13 37 -21 65 -44 26 -22 72
-49 80 -47 4 1 7 -2 7 -6 0 -5 21 -24 48 -42 26 -19 49 -37 52 -40 3 -3 21
-17 40 -30 19 -14 46 -34 59 -47 14 -12 29 -19 34 -16 6 3 7 1 3 -5 -4 -7 -3
-12 2 -12 5 0 23 -14 41 -30 17 -17 31 -28 31 -25 0 3 8 -3 18 -12 48 -47 137
-118 144 -116 4 2 8 -4 8 -12 0 -8 3 -15 8 -15 14 0 362 -337 355 -344 -3 -2
5 -7 16 -11 12 -3 21 -11 21 -16 0 -5 31 -41 69 -79 38 -39 67 -70 64 -70 -2
0 2 -6 9 -13 7 -8 36 -40 63 -73 28 -32 65 -75 84 -94 19 -19 34 -37 34 -40 0
-13 65 -88 71 -82 4 4 6 2 4 -4 -2 -5 7 -23 20 -40 12 -16 38 -50 56 -76 18
-26 36 -44 40 -40 4 4 7 3 5 -3 -4 -17 12 -45 22 -39 5 3 8 2 7 -3 -4 -12 42
-83 53 -83 6 0 8 -4 5 -8 -3 -5 4 -18 14 -30 11 -12 20 -26 20 -32 0 -6 7 -13
15 -16 8 -4 13 -10 10 -14 -3 -5 3 -13 12 -19 10 -6 15 -11 11 -11 -4 0 4 -16
17 -36 14 -20 25 -41 25 -46 0 -5 6 -6 13 -2 6 4 9 4 5 -1 -4 -4 1 -20 12 -35
11 -16 20 -33 20 -40 0 -6 6 -8 13 -4 6 4 9 4 5 -1 -8 -9 22 -65 35 -65 4 0 6
-4 2 -10 -3 -5 3 -18 15 -30 11 -11 18 -20 15 -20 -7 0 46 -93 58 -101 5 -3 8
-9 8 -13 -3 -20 0 -26 9 -21 6 4 9 3 8 -2 -4 -13 34 -93 44 -93 5 0 7 -4 4 -9
-3 -5 3 -20 14 -33 11 -14 16 -28 13 -32 -3 -3 -1 -6 6 -6 7 0 9 -4 6 -10 -3
-5 -1 -10 4 -10 6 0 10 -3 9 -7 -1 -5 17 -48 40 -96 23 -49 42 -93 42 -98 0
-5 4 -9 10 -9 5 0 9 -3 8 -7 -4 -12 36 -103 44 -103 4 0 5 -7 2 -15 -4 -8 -1
-15 5 -15 6 0 10 -3 9 -8 -2 -4 5 -25 14 -47 41 -96 51 -121 55 -138 1 -10 8
-28 15 -40 7 -12 13 -28 14 -35 1 -8 6 -21 10 -30 4 -9 8 -19 9 -22 14 -54 72
-216 78 -218 4 -2 5 -8 1 -13 -3 -5 -2 -15 3 -21 4 -7 8 -15 8 -18 5 -34 41
-150 48 -150 4 0 6 -4 3 -8 -3 -5 3 -36 14 -70 10 -34 15 -62 12 -62 -3 0 -1
-5 5 -11 6 -6 9 -18 6 -25 -3 -8 0 -14 6 -14 6 0 8 -7 5 -15 -4 -8 -1 -21 5
-29 6 -7 9 -15 6 -18 -3 -2 0 -20 6 -39 5 -19 12 -45 15 -59 2 -14 9 -54 16
-90 7 -36 11 -68 10 -72 -1 -5 1 -8 5 -8 5 0 8 -10 9 -22 1 -24 8 -71 24 -168
14 -79 19 -118 25 -180 2 -30 7 -71 10 -90 33 -223 48 -714 30 -995 -13 -220
-18 -271 -41 -465 -3 -25 -7 -61 -9 -80 -2 -19 -5 -35 -6 -35 -1 0 -3 -11 -5
-25 -8 -69 -39 -248 -48 -279 -3 -9 -7 -32 -10 -51 -3 -19 -10 -50 -15 -68 -5
-18 -10 -35 -10 -37 1 -5 -4 -27 -16 -80 -2 -11 -14 -56 -25 -100 -31 -118
-32 -119 -34 -135 -2 -8 -8 -28 -15 -43 -6 -16 -9 -32 -6 -37 3 -5 2 -10 -3
-12 -7 -2 -43 -111 -57 -170 -2 -9 -9 -26 -15 -37 -6 -12 -8 -21 -4 -21 3 0 2
-6 -4 -13 -6 -6 -10 -14 -10 -17 -1 -3 -6 -18 -12 -35 -7 -16 -13 -37 -15 -46
-2 -8 -10 -32 -19 -52 -8 -20 -12 -37 -8 -37 4 0 1 -4 -5 -8 -7 -4 -14 -17
-16 -27 -2 -11 -13 -40 -24 -65 -11 -25 -28 -67 -38 -95 -11 -27 -23 -53 -27
-56 -5 -3 -10 -16 -11 -27 -1 -12 -5 -22 -9 -22 -4 0 -7 -3 -6 -8 1 -4 -18
-47 -42 -97 -23 -49 -43 -96 -43 -102 0 -7 -4 -13 -8 -13 -8 0 -24 -40 -21
-52 1 -5 -3 -8 -9 -8 -5 0 -7 -5 -4 -10 3 -6 3 -10 -2 -10 -4 0 -16 -14 -25
-31 -11 -18 -13 -27 -5 -24 6 4 5 1 -3 -7 -23 -19 -70 -114 -62 -123 4 -5 1
-5 -5 -1 -7 4 -13 2 -13 -4 0 -6 -18 -42 -39 -78 -21 -37 -39 -71 -39 -76 0
-5 -4 -12 -10 -15 -5 -3 -22 -28 -37 -56 -16 -27 -32 -52 -35 -55 -3 -3 -23
-34 -44 -70 -22 -36 -42 -67 -45 -70 -18 -16 -105 -156 -103 -165 2 -5 0 -7
-4 -3 -8 8 -80 -91 -76 -104 1 -5 -5 -8 -14 -8 -8 0 -13 -4 -10 -9 4 -5 3 -11
-2 -13 -17 -7 -81 -95 -74 -102 4 -4 3 -6 -3 -4 -5 1 -11 0 -12 -5 -2 -4 -17
-23 -34 -41 -17 -19 -30 -36 -28 -38 1 -2 -13 -19 -32 -38 -47 -49 -89 -99
-89 -105 0 -3 -13 -17 -30 -31 -16 -14 -27 -31 -23 -36 3 -6 2 -9 -3 -6 -5 3
-15 0 -22 -8 -7 -8 -11 -14 -9 -14 3 0 -24 -28 -59 -62 -34 -34 -60 -66 -58
-70 3 -4 1 -8 -5 -8 -13 0 -181 -169 -181 -182 0 -6 -3 -9 -6 -5 -3 3 -13 -2
-23 -11 -10 -10 -41 -38 -69 -64 -29 -26 -52 -52 -52 -58 0 -6 -4 -9 -9 -6 -5
3 -23 -10 -40 -29 -17 -19 -33 -35 -36 -35 -12 2 -73 -58 -67 -65 4 -4 3 -5
-3 -3 -15 4 -56 -27 -47 -37 4 -5 2 -5 -4 -2 -5 3 -29 -11 -52 -32 -23 -21
-44 -36 -46 -34 -3 3 -11 -4 -18 -16 -7 -12 -18 -21 -25 -21 -6 0 -13 -3 -15
-8 -1 -4 -28 -25 -58 -46 -30 -22 -59 -44 -65 -51 -5 -6 -27 -21 -47 -34 -21
-12 -38 -27 -38 -32 0 -5 -3 -8 -7 -7 -15 3 -43 -14 -37 -23 3 -5 2 -8 -3 -7
-12 3 -55 -22 -75 -44 -9 -11 -20 -19 -25 -18 -11 1 -82 -43 -83 -52 0 -5 -5
-8 -11 -8 -12 0 -101 -59 -111 -74 -4 -6 -8 -7 -8 -3 0 10 -71 -31 -82 -47 -5
-7 -8 -7 -8 -1 0 7 -3 7 -8 0 -4 -5 -23 -18 -42 -29 -19 -10 -50 -27 -68 -38
-19 -10 -66 -35 -105 -56 -40 -20 -75 -41 -78 -45 -3 -5 -8 -7 -11 -5 -6 4
-141 -64 -150 -77 -4 -5 -8 -6 -8 -1 0 5 -7 3 -15 -4 -8 -7 -15 -9 -15 -5 0 5
-9 0 -20 -10 -11 -10 -20 -15 -20 -11 0 3 -22 -5 -50 -19 -27 -14 -51 -25 -52
-24 -2 0 -30 -11 -63 -26 -33 -14 -96 -40 -140 -57 -44 -17 -82 -34 -85 -37
-3 -3 -9 -6 -15 -6 -8 0 -121 -38 -185 -63 -8 -3 -17 -6 -20 -7 -16 -4 -188
-57 -200 -62 -8 -3 -26 -8 -40 -10 -14 -2 -27 -8 -28 -14 -2 -5 -8 -6 -13 -3
-6 3 -18 2 -27 -2 -19 -8 -27 -11 -57 -18 -11 -2 -49 -12 -85 -21 -36 -9 -76
-18 -90 -21 -14 -3 -65 -14 -113 -25 -48 -10 -98 -21 -110 -23 -12 -3 -22 -5
-22 -6 0 -1 -13 -3 -30 -5 -33 -4 -80 -12 -110 -18 -11 -3 -41 -7 -66 -11 -25
-4 -57 -9 -70 -11 -43 -7 -161 -21 -249 -30 -30 -2 -75 -7 -100 -9 -177 -19
-748 -26 -925 -12 -38 3 -99 8 -135 10 -79 6 -151 14 -205 21 -22 2 -60 7 -85
10 -25 3 -58 8 -75 11 -16 3 -46 7 -65 9 -42 5 -178 30 -239 44 -25 5 -48 8
-52 5 -4 -2 -10 0 -14 6 -3 5 -16 9 -28 9 -12 -1 -49 6 -82 15 -33 9 -72 19
-86 21 -14 1 -58 13 -99 25 -40 12 -82 23 -94 24 -11 2 -34 8 -49 15 -16 6
-32 11 -37 11 -22 0 -447 145 -527 180 -13 6 -33 14 -45 19 -13 5 -39 16 -58
24 -19 9 -55 23 -80 33 -25 9 -49 21 -55 26 -5 4 -17 8 -27 8 -10 0 -18 5 -18
10 0 6 -7 10 -15 10 -8 0 -34 11 -57 24 -24 13 -46 24 -51 25 -4 0 -29 12 -56
25 -27 14 -52 22 -56 18 -5 -4 -5 -2 -2 4 4 7 -4 15 -21 19 -15 4 -33 11 -40
17 -7 6 -32 21 -55 33 -78 40 -182 98 -210 117 -15 11 -27 16 -27 11 0 -4 -4
-3 -8 2 -11 15 -92 66 -92 58 0 -4 -7 2 -15 13 -8 10 -15 15 -15 11 0 -4 -10
2 -22 14 -24 22 -67 44 -81 40 -5 -1 -6 2 -3 7 6 9 -42 37 -57 33 -5 -1 -6 2
-3 7 6 9 -42 37 -57 33 -5 -1 -6 3 -2 9 3 5 2 10 -3 10 -5 0 -29 16 -54 35
-25 19 -48 31 -52 28 -3 -4 -6 -2 -6 3 0 6 -30 32 -67 59 -38 27 -71 54 -75
60 -4 5 -8 6 -8 2 0 -4 -11 3 -24 17 -13 15 -28 26 -34 26 -6 0 -12 3 -14 8
-7 17 -106 91 -112 84 -4 -4 -6 -2 -4 4 1 5 -15 26 -36 45 -22 18 -36 28 -31
20 5 -10 4 -12 -3 -7 -7 4 -12 13 -12 21 0 7 -4 15 -9 17 -19 7 -120 99 -282
258 -93 91 -169 163 -169 160 -1 -3 -7 6 -15 20 -7 14 -18 25 -24 25 -6 0 -11
4 -10 8 1 12 -84 103 -94 99 -4 -1 -6 1 -5 5 4 12 -28 54 -35 46 -4 -3 -7 -2
-7 4 0 17 -57 83 -64 75 -4 -4 -6 -2 -4 3 4 14 -38 66 -47 57 -3 -4 -5 -2 -3
3 3 12 -81 125 -93 125 -5 0 -8 3 -7 8 3 8 -75 114 -112 150 -14 14 -19 22
-11 17 9 -5 7 1 -4 19 -10 14 -22 26 -27 26 -5 0 -6 4 -3 10 3 5 2 10 -2 10
-5 0 -17 16 -27 35 -10 19 -23 32 -28 29 -5 -3 -7 -2 -6 3 4 12 -68 124 -76
118 -3 -3 -4 -2 -2 1 6 7 -42 86 -58 96 -6 4 -8 8 -4 8 3 0 -9 26 -28 57 -19
31 -34 61 -34 66 0 4 -5 5 -10 2 -6 -4 -10 -3 -9 2 4 15 -20 63 -31 63 -6 0
-8 5 -4 12 4 6 -1 17 -10 24 -10 7 -17 15 -17 18 3 21 0 26 -11 20 -6 -4 -8
-3 -5 3 4 6 -4 27 -17 46 -13 19 -22 38 -18 41 3 3 0 6 -7 6 -7 0 -10 3 -8 8
6 9 -28 73 -35 67 -3 -3 -5 1 -5 8 0 6 -26 65 -57 130 -31 64 -56 122 -56 127
0 6 -5 10 -10 10 -6 0 -9 3 -8 8 4 11 -55 146 -67 154 -5 4 -6 8 -1 8 5 0 4 6
-2 13 -6 6 -11 15 -11 20 -2 26 -15 57 -23 57 -5 0 -6 5 -3 10 3 6 1 10 -5 10
-6 0 -9 4 -6 9 3 5 -2 26 -11 47 -9 22 -18 44 -19 49 -14 48 -39 111 -46 113
-4 2 -6 7 -4 11 2 3 -9 45 -25 91 -17 47 -33 99 -35 115 -3 17 -10 32 -15 33
-5 2 -7 7 -5 11 2 3 -9 51 -25 106 -16 55 -29 108 -29 118 0 9 -4 17 -8 17 -4
0 -8 8 -9 18 -2 22 -4 35 -47 236 -20 92 -38 182 -41 200 -2 17 -6 40 -8 51
-3 11 -8 43 -11 70 -4 28 -10 64 -12 80 -7 38 -13 86 -19 155 -3 30 -8 71 -10
90 -19 141 -27 336 -27 625 0 258 3 347 18 525 3 36 7 88 9 115 2 28 4 50 5
50 3 0 7 31 14 95 4 36 11 91 17 123 5 31 7 62 4 67 -3 6 -1 10 4 10 6 0 10 3
9 8 -4 13 13 117 37 232 9 41 18 84 19 95 2 11 6 27 9 35 5 15 23 93 32 138 2
12 7 26 10 32 3 5 8 22 10 37 5 36 55 205 108 363 22 69 40 129 39 134 -2 5 2
12 7 16 6 3 12 15 14 25 2 11 10 34 16 50 7 17 14 35 15 40 2 6 8 21 13 35 38
89 51 129 45 136 -4 4 -1 4 6 0 7 -4 12 -1 13 8 3 31 4 35 17 48 6 6 12 20 12
29 0 10 5 21 10 24 6 4 8 10 5 15 -3 5 -1 11 5 15 6 4 8 11 5 16 -4 5 -2 9 4
9 9 0 27 40 22 49 -2 2 1 7 6 10 11 8 59 113 56 123 -2 4 1 8 6 8 10 0 27 39
23 53 -1 4 2 7 7 7 5 0 14 15 22 33 7 17 23 48 35 68 13 20 20 40 17 43 -4 3
-1 6 5 6 10 0 28 38 24 53 -1 4 2 7 8 7 5 0 16 14 25 30 9 17 13 30 10 30 -3
0 3 10 14 22 11 11 18 24 16 28 -3 5 2 11 11 14 9 4 14 13 10 22 -3 8 -2 12 3
9 9 -5 21 19 20 38 0 5 9 17 21 27 13 12 19 24 14 32 -4 7 -4 10 1 6 10 -10
75 93 68 107 -4 5 -3 7 2 3 8 -7 62 69 61 85 -1 5 7 13 17 18 9 6 15 14 12 20
-4 5 -2 9 4 9 5 0 20 17 32 38 13 20 30 45 39 55 8 10 15 21 14 25 -1 4 4 12
11 17 7 6 43 51 81 100 37 50 76 99 86 109 9 10 14 24 11 30 -3 6 -3 8 2 4 4
-4 17 5 28 20 12 15 45 54 74 88 29 33 51 64 48 67 -3 4 -2 5 1 3 3 -3 20 12
37 32 18 20 38 41 45 45 7 5 10 13 6 18 -3 5 0 8 8 7 7 -2 12 3 11 10 -2 6 5
12 14 12 9 0 14 3 11 6 -4 3 11 21 33 41 21 19 36 40 32 46 -3 5 -2 8 3 5 10
-6 194 177 188 187 -2 3 -1 3 3 0 8 -6 138 117 135 127 -1 5 2 7 6 5 7 -2 88
63 141 113 9 9 54 46 98 82 45 36 81 67 80 69 -1 2 0 3 2 2 2 -2 23 13 47 32
23 19 45 35 48 35 3 0 15 8 25 18 32 28 45 38 89 66 23 14 42 31 42 38 0 6 3
8 6 5 4 -4 23 6 43 21 20 16 53 39 74 51 20 12 37 27 37 32 0 6 4 8 8 5 5 -3
18 4 30 14 12 11 25 20 29 20 8 1 118 71 139 89 7 5 14 7 18 4 3 -3 8 2 12 11
3 9 10 13 15 10 5 -3 9 0 9 7 0 7 3 10 6 7 5 -6 105 49 132 72 6 6 12 8 12 6
0 -3 23 8 51 24 28 17 66 37 85 45 19 8 34 19 34 25 0 6 5 8 10 5 5 -3 10 -2
10 4 0 6 6 8 13 5 7 -2 22 4 33 14 10 10 25 17 32 14 6 -2 12 1 12 8 0 6 4 9
9 5 5 -3 17 2 25 11 9 8 16 13 16 11 0 -3 32 10 70 29 39 18 72 34 75 34 3 0
28 11 55 25 27 14 52 25 55 25 3 0 20 6 38 14 19 7 43 17 55 20 12 4 22 11 22
15 0 4 8 7 18 8 9 1 31 7 47 14 17 7 32 13 35 13 3 1 19 6 35 13 59 22 70 26
78 28 4 2 10 4 15 5 4 1 10 2 15 1 4 0 7 4 7 10 0 5 4 8 10 4 5 -3 17 -1 27 4
25 13 55 24 98 35 11 3 56 16 100 31 43 14 93 28 110 31 16 3 32 9 33 15 2 5
7 7 11 4 4 -2 25 1 47 7 21 7 42 13 47 14 4 1 10 3 15 4 4 1 10 2 14 1 4 0 19
4 33 9 14 5 40 12 58 15 18 3 50 11 72 17 22 5 47 12 55 13 8 2 15 4 15 5 0 1
12 3 27 5 21 3 107 18 213 39 38 7 110 19 145 23 19 2 44 6 55 7 11 2 47 6 80
10 33 4 75 9 93 12 19 2 66 7 105 10 40 3 88 8 107 9 19 2 100 7 180 10 80 4
146 7 147 8 3 4 287 -1 408 -7z"/>
<path d="M5439 8588 c-1 -2 -2 -786 -4 -1743 -1 -957 -5 -1755 -8 -1772 -4
-18 -9 -45 -12 -60 -2 -16 -9 -43 -14 -60 -5 -18 -7 -33 -3 -33 4 0 1 -4 -5
-8 -7 -4 -14 -17 -16 -27 -2 -11 -9 -30 -15 -42 -7 -13 -10 -23 -6 -23 3 0 1
-6 -5 -13 -6 -8 -8 -17 -4 -20 3 -4 1 -7 -5 -7 -11 0 -28 -38 -24 -53 1 -5 -2
-6 -8 -2 -5 3 -10 2 -10 -3 0 -11 -106 -142 -117 -145 -4 -1 -7 -6 -5 -10 1
-5 -2 -6 -7 -3 -5 4 -16 -3 -24 -14 -7 -11 -17 -17 -20 -13 -4 3 -7 1 -7 -6 0
-7 -4 -10 -8 -7 -5 3 -20 -5 -33 -17 -13 -12 -25 -21 -26 -19 -6 6 -73 -22
-73 -31 0 -4 -4 -5 -10 -2 -5 3 -16 3 -22 -2 -7 -4 -19 -8 -26 -9 -8 -2 -46
-8 -85 -15 -114 -19 -259 -15 -356 11 -19 5 -38 7 -43 4 -4 -3 -8 -1 -8 4 0 7
-69 34 -85 32 -3 0 -15 9 -27 19 -11 11 -25 18 -30 15 -4 -3 -8 0 -8 7 0 7 -3
9 -7 6 -3 -4 -40 28 -83 71 -52 53 -87 99 -110 147 -19 39 -39 73 -45 77 -5 4
-7 8 -3 8 4 0 2 15 -3 33 -25 79 -40 145 -45 187 -3 25 -7 59 -10 75 -3 17 -7
75 -8 130 l-2 100 -53 5 c-28 3 -56 3 -60 0 -9 -5 -7 -229 3 -290 6 -36 13
-71 16 -80 1 -3 2 -8 1 -13 -2 -14 22 -102 32 -114 5 -7 7 -13 3 -13 -6 0 23
-78 52 -140 42 -90 156 -223 225 -262 20 -12 37 -26 37 -32 0 -5 3 -7 6 -3 3
3 23 -4 43 -17 20 -13 65 -32 101 -44 123 -39 170 -45 320 -46 119 0 179 6
200 19 8 5 11 4 7 -3 -6 -9 49 4 113 26 8 3 20 6 25 8 44 13 90 34 106 47 10
9 19 13 19 9 0 -4 7 1 14 11 8 10 17 17 21 16 16 -4 154 124 158 147 1 5 12
19 24 32 22 24 77 131 98 192 1 3 5 14 9 25 20 52 27 72 31 90 2 11 9 38 14
60 6 22 13 56 17 75 4 19 7 821 8 1783 l1 1747 -57 0 c-32 0 -59 -1 -59 -2z"/>
<path d="M7284 6445 l0 -2113 60 1 61 2 0 680 c0 374 2 682 5 685 14 13 75
116 72 122 -1 5 2 8 6 8 10 0 37 50 34 63 -1 4 2 7 8 7 8 0 37 46 42 67 1 5
10 17 20 27 10 11 18 26 18 33 0 7 5 13 11 13 5 0 8 4 5 9 -4 5 -3 11 1 13 12
5 64 88 56 88 -4 0 2 7 13 15 10 8 16 15 12 15 -4 0 -1 8 7 18 8 9 16 22 17
27 1 6 9 18 17 27 9 9 25 34 36 55 11 21 22 40 25 43 9 8 61 99 61 107 0 5 7
12 15 16 8 4 14 13 14 18 0 6 14 30 30 55 17 24 28 44 25 44 -3 0 3 10 15 22
19 21 24 33 21 51 -1 5 3 6 9 2 9 -5 14 6 12 26 -1 3 5 6 13 6 8 0 13 -3 12
-6 -3 -8 106 -225 116 -232 5 -3 8 -8 8 -10 -4 -11 22 -69 30 -69 5 0 8 -3 7
-7 -2 -8 72 -163 82 -173 3 -3 14 -24 24 -47 11 -24 23 -43 28 -43 4 0 7 -3 7
-7 -3 -16 23 -73 34 -73 6 0 8 -3 4 -6 -7 -7 60 -146 75 -155 5 -3 9 -8 7 -10
-4 -7 43 -104 55 -111 6 -4 7 -8 3 -8 -7 0 20 -57 33 -70 3 -3 6 -9 7 -15 5
-25 70 -145 76 -140 4 3 5 2 2 -1 -2 -4 1 -16 7 -28 7 -11 13 -23 14 -26 8
-28 30 -70 36 -70 4 0 8 -7 8 -15 0 -8 5 -15 11 -15 5 0 7 -5 4 -11 -4 -5 -1
-18 7 -27 8 -9 20 -32 28 -49 7 -18 17 -33 23 -33 6 0 8 -3 4 -6 -6 -7 151
-324 166 -335 5 -3 8 -10 8 -15 -2 -12 62 -138 71 -142 5 -2 8 -8 8 -14 0 -20
52 -118 63 -118 6 0 7 -3 4 -7 -4 -3 -2 -12 4 -20 6 -7 9 -13 6 -13 -3 0 9
-26 26 -57 18 -32 41 -77 51 -100 11 -24 23 -43 28 -43 5 0 6 -5 3 -10 -4 -6
20 -10 64 -10 77 0 79 3 41 60 -9 14 -22 40 -29 58 -8 17 -18 32 -23 32 -5 0
-7 4 -3 9 3 5 1 12 -5 16 -5 3 -10 14 -10 24 0 9 -9 27 -20 39 -12 12 -18 22
-15 22 7 0 -57 123 -68 131 -5 3 -8 9 -7 13 2 11 -62 141 -72 144 -4 2 -6 8
-2 13 3 5 0 9 -6 9 -6 0 -9 4 -5 9 3 5 -1 15 -8 23 -14 14 -16 17 -24 48 -3
11 -9 20 -14 20 -5 0 -8 3 -7 8 2 10 -25 66 -37 74 -5 4 -6 8 -1 8 5 0 4 6 -2
13 -6 6 -31 55 -57 107 -26 52 -53 98 -59 102 -6 4 -8 8 -3 8 9 0 -62 144 -74
148 -5 2 -7 7 -4 12 3 5 -1 14 -8 22 -7 7 -14 17 -14 21 -2 17 -127 262 -137
269 -6 4 -8 8 -4 8 8 0 -78 170 -91 180 -3 3 -6 11 -7 18 -2 29 -5 33 -16 26
-7 -4 -10 -4 -6 1 4 4 2 17 -4 29 -7 11 -13 23 -13 26 -3 18 -60 120 -67 120
-5 0 -7 4 -4 9 3 4 -1 17 -9 27 -8 10 -15 27 -15 37 0 9 -4 17 -10 17 -5 0
-10 7 -10 15 0 8 -5 15 -10 15 -6 0 -9 3 -8 8 4 10 -104 225 -117 234 -5 4 -6
8 -1 8 5 0 1 9 -10 21 -10 12 -17 22 -15 23 6 2 -49 115 -59 121 -6 4 -8 10
-6 14 3 4 -3 17 -13 28 -18 19 -18 21 10 61 16 23 25 42 21 42 -4 0 -2 4 4 8
13 9 180 276 176 281 -2 2 0 7 5 10 11 8 62 87 65 102 2 7 10 20 18 30 32 38
40 48 40 54 0 3 11 22 25 42 13 20 21 41 18 46 -3 6 -1 7 5 3 11 -6 16 6 13
27 0 4 3 7 8 7 9 0 67 92 62 99 -1 2 2 7 7 10 16 10 61 89 55 95 -4 3 -1 6 5
6 6 0 19 15 28 33 9 17 22 35 28 39 6 5 7 8 1 8 -7 0 -7 3 0 8 16 11 66 92 58
92 -5 0 -3 4 2 8 12 8 45 58 46 69 0 5 7 12 15 16 8 5 12 12 9 18 -4 5 -1 9 5
9 6 0 9 4 6 9 -4 5 -2 11 3 13 12 4 103 148 93 148 -4 0 -2 4 4 8 13 9 74 100
74 111 0 5 7 14 15 21 8 7 12 16 9 21 -3 5 -1 9 4 9 9 0 64 87 73 115 1 6 13
21 26 35 13 14 23 28 23 31 0 3 -34 6 -76 6 -72 -1 -76 -2 -97 -31 -12 -17
-22 -33 -21 -36 0 -3 -19 -35 -43 -73 -24 -37 -43 -72 -43 -77 0 -6 -5 -10
-12 -10 -6 0 -9 -3 -5 -6 3 -4 -1 -13 -9 -21 -8 -8 -11 -19 -8 -25 4 -6 3 -8
-3 -5 -9 6 -22 -14 -34 -48 -1 -5 -11 -19 -21 -29 -10 -11 -18 -26 -18 -33 0
-7 -5 -13 -12 -13 -6 0 -9 -3 -5 -6 3 -4 -1 -13 -9 -21 -8 -8 -11 -19 -8 -25
4 -6 2 -8 -4 -4 -10 6 -28 -30 -24 -47 1 -5 -2 -6 -8 -2 -5 3 -10 -1 -10 -9 0
-9 -4 -16 -10 -16 -5 0 -10 -5 -10 -11 0 -6 -9 -23 -20 -39 -11 -15 -17 -30
-13 -34 3 -3 1 -6 -5 -6 -11 0 -44 -52 -41 -66 0 -4 -3 -10 -8 -13 -13 -9 -58
-85 -55 -93 1 -5 -2 -8 -6 -8 -5 0 -19 -19 -32 -42 -13 -24 -28 -46 -34 -50
-6 -4 -7 -8 -2 -8 5 0 2 -8 -6 -17 -21 -25 -89 -141 -88 -149 1 -4 -2 -10 -7
-13 -11 -8 -44 -59 -42 -67 0 -4 -3 -10 -8 -13 -14 -10 -64 -91 -56 -91 5 0 3
-4 -3 -8 -16 -10 -96 -142 -86 -142 4 0 2 -4 -4 -8 -20 -14 -63 -85 -57 -95 3
-6 1 -7 -5 -3 -11 6 -16 -6 -13 -26 0 -5 -4 -8 -10 -8 -5 0 -7 -4 -4 -10 3 -5
2 -10 -3 -10 -10 0 -104 -150 -102 -163 1 -5 -7 -16 -18 -25 -10 -9 -17 -23
-14 -31 3 -8 0 -11 -6 -7 -10 6 -28 -30 -24 -47 1 -5 -2 -6 -8 -2 -5 3 -10 1
-10 -4 0 -18 -3 -25 -14 -38 -27 -31 -36 -43 -36 -49 0 -3 -9 -19 -21 -35 -11
-16 -17 -29 -12 -29 4 0 3 -4 -3 -8 -14 -9 -84 -119 -84 -132 0 -6 -5 -10 -12
-10 -6 0 -9 -3 -5 -6 3 -3 1 -11 -4 -18 -26 -29 -98 -150 -93 -157 2 -4 -1
-11 -8 -16 -15 -9 -58 -69 -58 -80 0 -4 -9 -19 -20 -33 -11 -14 -20 -33 -20
-43 0 -10 -4 -16 -9 -12 -5 3 -13 -4 -16 -16 -9 -27 -52 -90 -61 -89 -4 0 -7
591 -7 1313 l0 1314 -62 0 -61 0 0 -2112z"/>
</g>
</svg>
